HIERARCHY
ROOT Hips
{
	OFFSET 0.00000 0.00000 0.00000
	CHANNELS 6 Xposition Yposition Zposition Zrotation Yrotation Xrotation 
	JOINT LHipJoint
	{
		OFFSET 0 0 0
		CHANNELS 3 Zrotation Yrotation Xrotation
		JOINT LeftHip
		{
			OFFSET 1.58895 -1.83665 0.71753
			CHANNELS 3 Zrotation Yrotation Xrotation
			JOINT LeftKnee
			{
				OFFSET 2.50528 -6.88321 0.00000
				CHANNELS 3 Zrotation Yrotation Xrotation
				JOINT LeftAnkle
				{
					OFFSET 2.63244 -7.23257 0.00000
					CHANNELS 3 Zrotation Yrotation Xrotation
					JOINT LeftToe
					{
						OFFSET 0.23691 -0.65090 1.72750
						CHANNELS 3 Zrotation Yrotation Xrotation
						End Site
						{
							OFFSET 0.00000 -0.00000 0.92561
						}
					}
				}
			}
		}
	}
	JOINT RHipJoint
	{
		OFFSET 0 0 0
		CHANNELS 3 Zrotation Yrotation Xrotation
		JOINT RightHip
		{
			OFFSET -1.51435 -1.83665 0.71753
			CHANNELS 3 Zrotation Yrotation Xrotation
			JOINT RightKnee
			{
				OFFSET -2.54551 -6.99375 0.00000
				CHANNELS 3 Zrotation Yrotation Xrotation
				JOINT RightAnkle
				{
					OFFSET -2.66027 -7.30903 0.00000
					CHANNELS 3 Zrotation Yrotation Xrotation
					JOINT RightToe
					{
						OFFSET -0.22981 -0.63138 2.03959
						CHANNELS 3 Zrotation Yrotation Xrotation
						End Site
						{
							OFFSET -0.00000 -0.00000 1.07060
						}
					}
				}
			}
		}
	}
	JOINT lowerback
	{
		OFFSET 0 0 0
		CHANNELS 3 Zrotation Yrotation Xrotation
		JOINT Chest
		{
			OFFSET -0.02651 1.86275 -0.11152
			CHANNELS 3 Zrotation Yrotation Xrotation
			JOINT Chest2
			{
				OFFSET 0.01019 1.86224 0.04087
				CHANNELS 3 Zrotation Yrotation Xrotation
				JOINT lowerneck
				{
					OFFSET 0 0 0
					CHANNELS 3 Zrotation Yrotation Xrotation
					JOINT Neck
					{
						OFFSET -0.01926 1.80512 0.08867
						CHANNELS 3 Zrotation Yrotation Xrotation
						JOINT Head
						{
							OFFSET 0.05516 1.76451 -0.38475
							CHANNELS 3 Zrotation Yrotation Xrotation
							End Site
							{
								OFFSET 0.01592 1.82587 -0.14001
							}
						}
					}
				}
				JOINT LeftCollar
				{
					OFFSET 0 0 0
					CHANNELS 3 Zrotation Yrotation Xrotation
					JOINT LeftShoulder
					{
						OFFSET 3.47116 1.51376 0.14491
CHANNELS 3 Zrotation Xrotation Yrotation
						JOINT LeftElbow
						{
OFFSET 0 -4.780950 0.000000
CHANNELS 3 Zrotation Xrotation Yrotation
							JOINT LeftWrist
							{
OFFSET 0 -3.586150 -0.000000
CHANNELS 3 Zrotation Xrotation Yrotation
								JOINT lhand
								{
									OFFSET 0 0 0
CHANNELS 3 Zrotation Xrotation Yrotation
									JOINT LFingers
									{
OFFSET 0 -0.659810 0.000000
CHANNELS 3 Zrotation Xrotation Yrotation
										End Site
										{
OFFSET 0 -0.531960 0.000000
										}
									}
								}
								JOINT LThumb
								{
OFFSET 0 0.000000 0.000000
CHANNELS 3 Zrotation Xrotation Yrotation
									End Site
									{
OFFSET 0 -0.540080 0.540080
									}
								}
							}
						}
					}
				}
				JOINT RightCollar
				{
					OFFSET 0 0 0
					CHANNELS 3 Zrotation Yrotation Xrotation
					JOINT RightShoulder
					{
						OFFSET -3.31725 1.61216 0.35156
CHANNELS 3 Zrotation Xrotation Yrotation
						JOINT RightElbow
						{
OFFSET 0 -4.489130 0.000000
CHANNELS 3 Zrotation Xrotation Yrotation
							JOINT RightWrist
							{
OFFSET 0 -3.705100 0.000000
CHANNELS 3 Zrotation Xrotation Yrotation
								JOINT rhand
								{
									OFFSET 0 0 0
CHANNELS 3 Zrotation Xrotation Yrotation
									JOINT RFingers
									{
OFFSET 0 -0.449140 0.000000
CHANNELS 3 Zrotation Xrotation Yrotation
										End Site
										{
OFFSET 0 -0.362110 0.000000
										}
									}
								}
								JOINT RThumb
								{
OFFSET 0 0.000000 0.000000
CHANNELS 3 Zrotation Xrotation Yrotation
									End Site
									{
OFFSET 0 -0.367630 0.367630
									}
								}
							}
						}
					}
				}
			}
		}
	}
}
MOTION
Frames: 8
Frame Time: 0.008333333333333333
-1.082900 18.211800 5.562700 -3.602000 -6.213600 0.976200 0.000000 0.000000 0.000000 -13.658800 -2.137000 16.948100 0.678100 -5.265300 -14.666800 -1.203000 20.616500 -16.511300 0.002000 -0.291900 -0.802200 0.000000 0.000000 0.000000 19.360700 1.663300 7.488700 0.000000 0.000000 -0.000000 -0.770300 -3.879300 -18.429900 -0.163100 -2.602200 7.173200 0.815800 2.242200 0.143100 -0.472100 2.991300 -0.767900 -0.962800 1.488300 -0.799100 2.464400 -2.818500 -12.109900 4.394200 -5.464500 21.128400 0.466900 -1.929500 8.664300 -0.000000 0.000000 0.000000 -1.884700 9.303000 -23.156600 20.318800 -31.024500 5.694800 5.131400 11.128700 27.207400 0.000000 0.000000 0.000000 -7.125000 0.000000 0.000000 -14.852500 3.447800 -14.434100 -0.000000 0.000000 0.000000 -0.203500 16.574800 28.814600 -22.665300 -33.720800 -6.951600 -9.445800 19.941600 25.214500 0.000000 0.000000 0.000000 7.125000 0.000000 -0.000000 21.189800 54.219000 -4.970900
-1.086205 18.210931 5.551870 -3.526010 -6.082165 0.896481 0.000000 0.000000 0.000000 -13.689477 -1.928858 16.820241 0.672065 -5.242398 -14.601162 -1.193015 20.450569 -16.176450 0.006633 -0.525180 -1.443037 0.000000 0.000000 0.000000 19.288842 1.520824 7.495142 0.000000 0.000000 0.000000 -0.770552 -3.886070 -18.435986 -0.165930 -2.624668 7.235433 0.707836 2.192974 0.299452 -0.496953 2.925686 -0.763480 -0.934222 1.455693 -0.887703 2.467625 -2.809328 -12.036741 4.384563 -5.439689 21.024766 0.467445 -1.923288 8.614636 0.000000 0.000000 0.000000 -1.959797 9.020185 -22.829989 20.023180 -30.670208 5.543221 5.561308 11.262797 27.716561 0.000000 0.000000 0.000000 -7.125000 0.000000 0.000000 -14.608858 2.914656 -14.327582 0.000000 0.000000 0.000000 -0.147249 16.566341 28.828480 -22.655751 -33.710229 -6.946309 -9.367207 19.991756 24.929384 0.000000 0.000000 0.000000 7.125000 0.000000 0.000000 21.100879 53.938962 -4.801375
-1.090935 18.212974 5.544650 -3.517797 -5.920452 0.884835 0.000000 0.000000 0.000000 -13.619050 -1.656938 16.630418 0.669800 -5.233720 -14.576381 -1.166661 20.154535 -15.740258 0.017756 -0.857848 -2.357802 0.000000 0.000000 0.000000 19.299449 1.359283 7.456916 0.000000 0.000000 0.000000 -0.773187 -3.873239 -18.456076 -0.161607 -2.589974 7.139354 0.843693 2.225775 0.719143 -0.640855 2.972208 -1.036672 -1.183251 1.472841 -1.387433 2.503172 -2.859995 -11.854259 4.503399 -5.545509 21.161798 0.492243 -1.956726 8.632599 0.000000 0.000000 0.000000 -1.922641 7.703284 -22.021966 17.832536 -27.932625 4.475420 8.831336 10.509349 29.632151 0.000000 0.000000 0.000000 -7.125000 0.000000 0.000000 -12.785079 0.690698 -12.949440 0.000000 0.000000 0.000000 0.154656 17.014805 28.657168 -22.722207 -33.783575 -6.983217 -9.031361 20.069151 25.456514 0.000000 0.000000 0.000000 7.125000 0.000000 0.000000 21.737245 54.366502 -5.189265
-1.094753 18.212506 5.541728 -3.531787 -5.848643 0.854835 0.000000 0.000000 0.000000 -13.570778 -1.573154 16.623995 0.673450 -5.247631 -14.616268 -1.166133 20.106588 -15.592955 0.020975 -0.935002 -2.570017 0.000000 0.000000 0.000000 19.322913 1.277673 7.468412 0.000000 0.000000 0.000000 -0.776556 -3.816953 -18.457464 -0.173720 -2.684746 7.402190 0.910157 2.275326 0.723931 -0.660875 3.038949 -1.036094 -1.241907 1.505412 -1.383292 2.436224 -2.906168 -11.887761 4.520196 -5.605182 21.229652 0.501701 -1.985320 8.664865 0.000000 0.000000 0.000000 -1.978425 6.947405 -21.690290 16.781723 -26.566960 3.990449 11.154841 9.338243 31.378118 0.000000 0.000000 0.000000 -7.125000 0.000000 0.000000 -11.559808 -1.318606 -12.068903 0.000000 0.000000 0.000000 0.273465 17.111005 28.525642 -22.778709 -33.845929 -7.014684 -8.715702 20.047684 25.572011 0.000000 0.000000 0.000000 7.125000 0.000000 0.000000 22.113927 54.414715 -5.312122
-1.101296 18.210611 5.538911 -3.584440 -5.784831 0.817239 0.000000 0.000000 0.000000 -13.468455 -1.501961 16.630578 0.675611 -5.255926 -14.639964 -1.160714 20.032304 -15.458297 0.022300 -0.963119 -2.647396 0.000000 0.000000 0.000000 19.405496 1.194053 7.499608 0.000000 0.000000 0.000000 -0.781663 -3.759995 -18.476697 -0.185085 -2.771021 7.641780 0.977547 2.327227 0.759928 -0.666238 3.109383 -1.030015 -1.287593 1.539912 -1.391471 2.319507 -2.942308 -12.003208 4.669857 -5.681561 21.393514 0.560435 -2.007100 8.751692 0.000000 0.000000 0.000000 -2.178405 7.281917 -21.205911 17.291927 -27.240987 4.220119 11.352334 9.738426 31.676531 0.000000 0.000000 0.000000 -7.125000 0.000000 0.000000 -11.470558 -1.639747 -12.035068 0.000000 0.000000 0.000000 0.352157 17.133515 28.454782 -22.771495 -33.838050 -7.010666 -8.415478 19.774035 25.450656 0.000000 0.000000 0.000000 7.125000 0.000000 0.000000 22.332797 54.246999 -5.275285
-1.105734 18.209344 5.537406 -3.564661 -5.724666 0.778329 0.000000 0.000000 0.000000 -13.466078 -1.467495 16.637348 0.674669 -5.252273 -14.629609 -1.155549 19.978791 -15.387073 0.017556 -0.855243 -2.350595 0.000000 0.000000 0.000000 19.401371 1.116548 7.528544 0.000000 0.000000 0.000000 -0.780188 -3.765747 -18.465270 -0.183877 -2.762051 7.616958 0.947178 2.339358 0.784321 -0.673824 3.125243 -1.054013 -1.280509 1.547674 -1.430498 2.285451 -2.937078 -12.008190 4.740136 -5.693460 21.537623 0.587924 -2.003017 8.805657 0.000000 0.000000 0.000000 -2.233795 7.299287 -21.057398 17.315637 -27.271997 4.230917 11.672266 9.605812 32.035777 0.000000 0.000000 0.000000 -7.125000 0.000000 0.000000 -11.318329 -2.038846 -11.946076 0.000000 0.000000 0.000000 0.408469 17.171762 28.407468 -22.709095 -33.769221 -6.975936 -8.412115 19.728617 25.356147 0.000000 0.000000 0.000000 7.125000 0.000000 0.000000 22.279330 54.159085 -5.212917
-1.109278 18.210339 5.535706 -3.557406 -5.667935 0.793111 0.000000 0.000000 0.000000 -13.469005 -1.551843 16.628617 0.673333 -5.247111 -14.614740 -1.159777 20.007731 -15.395829 0.019706 -0.905925 -2.489919 0.000000 0.000000 0.000000 19.405606 1.065696 7.495743 0.000000 0.000000 0.000000 -0.773222 -3.793013 -18.408581 -0.181105 -2.740990 7.558422 0.952413 2.342244 0.754343 -0.693951 3.128733 -1.084389 -1.303563 1.548978 -1.443327 2.351806 -2.929089 -12.015880 4.685173 -5.690317 21.629570 0.558456 -1.998633 8.835102 0.000000 0.000000 0.000000 -2.272548 7.250003 -20.877378 17.271088 -27.213732 4.210527 11.906186 9.546538 32.235912 0.000000 0.000000 0.000000 -7.125000 0.000000 0.000000 -11.203340 -2.269902 -11.863867 0.000000 0.000000 0.000000 0.471275 17.196477 28.434022 -22.738248 -33.801360 -6.992158 -8.768475 19.826358 25.432108 0.000000 0.000000 0.000000 7.125000 0.000000 0.000000 21.978577 54.295223 -5.211765
-1.113046 18.210143 5.534813 -3.573225 -5.609248 0.781579 0.000000 0.000000 0.000000 -13.430598 -1.542961 16.631584 0.674588 -5.251924 -14.628556 -1.155556 19.952525 -15.298980 0.023156 -0.982401 -2.700320 0.000000 0.000000 0.000000 19.431722 1.003632 7.490466 0.000000 0.000000 0.000000 -0.772792 -3.785948 -18.399796 -0.182789 -2.753497 7.593172 0.982330 2.344689 0.732837 -0.696845 3.132148 -1.071116 -1.321810 1.550617 -1.415761 2.325839 -2.940616 -12.020980 4.682956 -5.700356 21.630562 0.560812 -2.005486 8.837029 0.000000 0.000000 0.000000 -2.225520 7.234022 -21.051237 17.270131 -27.212490 4.210125 12.014511 9.321965 32.183910 0.000000 0.000000 0.000000 -7.125000 0.000000 0.000000 -11.138305 -2.234894 -11.785737 0.000000 0.000000 0.000000 0.505030 17.133421 28.447556 -22.770074 -33.836432 -7.009816 -8.157788 19.576212 25.592272 0.000000 0.000000 0.000000 7.125000 0.000000 0.000000 22.668607 54.329649 -5.407653
